<?xml version="1.0" standalone="no"?>
  <!DOCTYPE svg PUBLIC "-//W3C//DTD SVG 1.1//EN" "http://www.w3.org/Graphics/SVG/1.1/DTD/svg11.dtd" >
  <svg>
  <metadata>
  Created by font-carrier
  </metadata>
  <defs>
  <font id="iconfont" horiz-adv-x="1024" vert-adv-y="1024" >
    <font-face
      
      font-family="iconfont"
      
      font-weight="400"
      
      font-stretch="normal"
      
      units-per-em="1024"
      
      ascent="812"
      
      descent="-212"
      
    />
      <missing-glyph />

      
      <glyph glyph-name="x" unicode="&#x78;" horiz-adv-x="100"
        d="M20 20 L50 20 L50 -20 Z" />
      

      
      <glyph glyph-name="tianjia2" unicode="&#xE600;" d="M883.5657 342.4229H545.6457V671.5657C545.6457 692.0457 528.0914 709.6 507.6114 709.6 487.1314 709.6 469.5771 692.0457 469.5771 671.5657V342.4229H140.4343C119.9543 342.4229 102.4 324.8686 102.4 304.3886 102.4 283.9086 119.9543 266.3543 140.4343 266.3543H469.5771V-73.0286C469.5771-93.5086 487.1314-111.0629 507.6114-111.0629 528.0914-111.0629 545.6457-93.5086 545.6457-73.0286V266.3543H885.0286C905.5086 266.3543 923.0629 283.9086 923.0629 304.3886 921.6 324.8686 904.0457 342.4229 883.5657 342.4229Z"  horiz-adv-x="1024" vert-adv-y="1024"  />

      
      <glyph glyph-name="richeng" unicode="&#xE601;" d="M801.6457 5.9657C804.5714-45.2343 751.9086-43.7714 751.9086-43.7714H270.6286C219.4286-37.92 222.3543 7.4286 222.3543 7.4286V545.76C222.3543 596.96 269.1657 595.4971 269.1657 595.4971L318.9029 595.4971V545.76H282.3314C267.7029 545.76 269.1657 531.1314 269.1657 531.1314V19.1314C269.1657 5.9657 280.8686 5.9657 280.8686 5.9657H740.2057C751.9086 5.9657 750.4457 19.1314 750.4457 19.1314V532.5943C750.4457 545.76 734.3543 545.76 734.3543 545.76H702.1714V595.4971H750.4457C803.1086 592.5714 798.72 545.76 798.72 545.76V5.9657ZM643.6571 251.7257H620.2514C612.9371 251.7257 607.0857 257.5771 607.0857 264.8914V484.32C607.0857 491.6343 612.9371 497.4857 620.2514 497.4857H643.6571C650.9714 497.4857 656.8229 491.6343 656.8229 484.32V264.8914C656.8229 257.5771 650.9714 251.7257 643.6571 251.7257ZM367.1771 484.32C367.1771 491.6343 373.0286 497.4857 380.3429 497.4857H403.7486C411.0629 497.4857 415.4514 491.6343 415.4514 484.32V264.8914C415.4514 257.5771 409.6 251.7257 403.7486 251.7257H380.3429C373.0286 251.7257 367.1771 257.5771 367.1771 264.8914V484.32ZM500.2971 251.7257C492.9829 251.7257 487.1314 257.5771 487.1314 264.8914V484.32C487.1314 491.6343 492.9829 497.4857 500.2971 497.4857H523.7029C531.0171 497.4857 536.8686 491.6343 536.8686 484.32V264.8914C536.8686 257.5771 531.0171 251.7257 523.7029 251.7257H500.2971ZM378.88 103.9771H643.6571C650.9714 103.9771 655.36 98.1257 655.36 90.8114V67.4057C655.36 60.0914 649.5086 54.24 643.6571 54.24H378.88C371.5657 54.24 367.1771 60.0914 367.1771 67.4057V90.8114C367.1771 98.1257 373.0286 103.9771 378.88 103.9771ZM367.1771 190.2857C367.1771 197.6 373.0286 203.4514 378.88 203.4514H643.6571C650.9714 203.4514 655.36 197.6 655.36 190.2857V166.88C655.36 159.5657 649.5086 153.7143 643.6571 153.7143H378.88C371.5657 153.7143 367.1771 159.5657 367.1771 166.88V190.2857ZM367.1771 595.4971H421.3029L476.8914 658.4C476.8914 658.4 490.0571 673.0286 510.5371 671.5657 510.5371 671.5657 526.6286 673.0286 544.1829 658.4L601.2343 595.4971H655.36V545.76H367.1771V595.4971ZM551.4971 595.4971L519.3143 636.4571C519.3143 636.4571 512 645.2343 504.6857 636.4571L471.04 596.96H551.4971Z"  horiz-adv-x="1024" vert-adv-y="1024"  />

      
      <glyph glyph-name="rili3" unicode="&#xE602;" d="M721.1886 563.3143H640.7314V615.9771C640.7314 630.6057 627.5657 643.7714 611.4743 643.7714 596.8457 643.7714 580.7543 633.5314 580.7543 615.9771V563.3143H434.4686V615.9771C434.4686 632.0686 418.3771 643.7714 405.2114 643.7714 389.12 643.7714 375.9543 630.6057 375.9543 615.9771V563.3143L292.5714 563.3143C289.6457 563.3143 286.72 563.3143 285.2571 563.3143 184.32 563.3143 182.8571 493.0971 181.3943 462.3771L181.3943 456.5257C181.3943 456.5257 181.3943 89.3486 181.3943 87.8857 181.3943 73.2571 181.3943 35.2229 206.2629 8.8914 222.3543-7.2 242.8343-14.5143 270.6286-14.5143 273.5543-14.5143 277.9429-14.5143 279.4057-14.5143H769.4629L770.9257-14.5143C816.2743-7.2 836.7543 29.3714 838.2171 63.0171L838.2171 457.9886C836.7543 563.3143 751.9086 563.3143 721.1886 563.3143ZM746.0571 44C743.1314 44 741.6686 44 737.28 44H273.5543C250.1486 44 241.3714 54.24 239.9086 80.5714L239.9086 444.8229C239.9086 449.2114 239.9086 453.6 239.9086 457.9886 239.9086 488.7086 241.3714 503.3371 298.4229 503.3371 304.2743 503.3371 308.6629 503.3371 315.9771 503.3371H374.4914V396.5486C374.4914 380.4571 389.12 368.7543 403.7486 368.7543 418.3771 368.7543 433.0057 378.9943 433.0057 396.5486V504.8H579.2914V398.0114C579.2914 383.3829 592.4571 371.68 608.5486 371.68 623.1771 371.68 637.8057 381.92 637.8057 398.0114V504.8H728.5029C765.0743 504.8 778.24 491.6343 778.24 459.4514L778.24 64.48C779.7029 60.0914 778.24 44 746.0571 44ZM610.0114 194.6743H392.0457C375.9543 194.6743 361.3257 181.5086 361.3257 163.9543 361.3257 147.8629 374.4914 134.6971 392.0457 133.2343H610.0114C626.1029 133.2343 639.2686 146.4 639.2686 163.9543 639.2686 180.0457 626.1029 194.6743 610.0114 194.6743ZM610.0114 300H392.0457C375.9543 300 362.7886 286.8343 361.3257 270.7429L361.3257 269.28C361.3257 253.1886 374.4914 238.56 392.0457 238.56H610.0114C626.1029 238.56 639.2686 251.7257 639.2686 269.28 639.2686 286.8343 626.1029 300 610.0114 300Z"  horiz-adv-x="1024" vert-adv-y="1024"  />

      
      <glyph glyph-name="fujian8" unicode="&#xE603;" d="M611.4743 396.5486L574.9029 433.12 387.6571 248.8C356.9371 218.08 356.9371 168.3429 387.6571 137.6229 418.3771 106.9029 468.1143 106.9029 498.8343 137.6229L721.1886 359.9771C772.3886 411.1771 772.3886 494.56 721.1886 545.76 669.9886 596.96 586.6057 596.96 535.4057 545.76L301.3486 311.7029C301.3486 311.7029 301.3486 311.7029 301.3486 311.7029 229.6686 240.0229 229.6686 124.4571 301.3486 52.7771 373.0286-18.9029 488.5943-18.9029 560.2743 52.7771 560.2743 52.7771 560.2743 52.7771 560.2743 52.7771L560.2743 52.7771 721.1886 212.2286 684.6171 248.8 525.1657 89.3486C525.1657 89.3486 525.1657 89.3486 525.1657 89.3486 473.9657 38.1486 392.0457 38.1486 340.8457 89.3486 289.6457 140.5486 289.6457 222.4686 340.8457 273.6686 340.8457 273.6686 340.8457 273.6686 340.8457 273.6686L340.8457 273.6686 574.9029 507.7257C605.6229 538.4457 655.36 538.4457 686.08 507.7257 716.8 477.0057 716.8 427.2686 686.08 396.5486L462.2629 174.1943C452.0229 163.9543 435.9314 163.9543 425.6914 174.1943 415.4514 184.4343 415.4514 200.5257 425.6914 210.7657L611.4743 396.5486 611.4743 396.5486 611.4743 396.5486Z"  horiz-adv-x="1024" vert-adv-y="1024"  />

      
      <glyph glyph-name="lajitong1" unicode="&#xE604;" d="M384.7314 14.7429C340.8457 14.7429 305.7371 48.3886 305.7371 90.8114V399.4743C285.2571 402.4 269.1657 419.9543 269.1657 440.4343V475.5429C269.1657 497.4857 288.1829 516.5029 311.5886 516.5029H413.9886V545.76C413.9886 567.7029 433.0057 586.72 456.4114 586.72H564.6629C588.0686 586.72 607.0857 567.7029 607.0857 545.76V516.5029H709.4857C732.8914 516.5029 751.9086 497.4857 751.9086 475.5429V440.4343C751.9086 419.9543 735.8171 402.4 715.3371 399.4743V90.8114C715.3371 48.3886 680.2286 14.7429 636.3429 14.7429H384.7314ZM355.4743 90.8114C355.4743 74.72 368.64 61.5543 384.7314 61.5543H637.8057C653.8971 61.5543 667.0629 74.72 667.0629 90.8114V398.0114H355.4743V90.8114ZM330.6057 468.2286C324.7543 468.2286 318.9029 463.84 318.9029 456.5257 318.9029 450.6743 324.7543 444.8229 330.6057 444.8229H691.9314C697.7829 444.8229 703.6343 449.2114 703.6343 456.5257 703.6343 462.3771 697.7829 468.2286 691.9314 468.2286H330.6057ZM560.2743 515.04V526.7429C560.2743 532.5943 554.4229 538.4457 548.5714 538.4457H476.8914C471.04 538.4457 465.1886 534.0571 465.1886 526.7429V515.04H560.2743ZM602.6971 84.96C589.5314 84.96 577.8286 95.2 577.8286 108.3657V317.5543C577.8286 330.72 588.0686 340.96 602.6971 340.96 615.8629 340.96 627.5657 330.72 627.5657 317.5543V108.3657C626.1029 95.2 615.8629 84.96 602.6971 84.96ZM512 84.96C498.8343 84.96 487.1314 95.2 487.1314 108.3657V317.5543C487.1314 330.72 497.3714 340.96 512 340.96 525.1657 340.96 536.8686 330.72 536.8686 317.5543V108.3657C536.8686 95.2 525.1657 84.96 512 84.96ZM421.3029 84.96C408.1371 84.96 396.4343 95.2 396.4343 108.3657V317.5543C396.4343 330.72 406.6743 340.96 421.3029 340.96 434.4686 340.96 446.1714 330.72 446.1714 317.5543V108.3657C446.1714 95.2 434.4686 84.96 421.3029 84.96Z"  horiz-adv-x="1024" vert-adv-y="1024"  />

      
      <glyph glyph-name="zengjia" unicode="&#xE605;" d="M519.3143 700.8229C294.0343 700.8229 109.7143 516.5029 109.7143 291.2229 109.7143 65.9429 294.0343-118.3771 519.3143-118.3771 744.5943-118.3771 928.9143 65.9429 928.9143 291.2229 928.9143 516.5029 746.0571 700.8229 519.3143 700.8229ZM519.3143-65.7143C323.2914-65.7143 163.84 95.2 163.84 291.2229S323.2914 648.16 520.7771 648.16 877.7143 488.7086 877.7143 291.2229 715.3371-65.7143 519.3143-65.7143ZM712.4114 321.9429H545.6457V487.2457C545.6457 501.8743 533.9429 513.5771 519.3143 513.5771 504.6857 513.5771 492.9829 501.8743 492.9829 487.2457V320.48H326.2171C311.5886 320.48 299.8857 308.7771 299.8857 294.1486 299.8857 279.52 311.5886 267.8171 326.2171 267.8171H492.9829V101.0514C492.9829 86.4229 504.6857 74.72 519.3143 74.72 533.9429 74.72 545.6457 86.4229 545.6457 101.0514V267.8171H712.4114C727.04 267.8171 738.7429 279.52 738.7429 294.1486 738.7429 310.24 727.04 321.9429 712.4114 321.9429Z"  horiz-adv-x="1024" vert-adv-y="1024"  />

      
      <glyph glyph-name="zuzhi5" unicode="&#xE606;" d="M865.28 199.3067V300C865.28 315.36 853.3333 323.8933 841.3867 323.8933H544.4267V421.1733H716.8C732.16 421.1733 740.6933 431.4133 740.6933 445.0667V668.64C740.6933 684 730.4533 692.5333 716.8 692.5333H322.56C307.2 692.5333 298.6667 682.2933 298.6667 668.64V448.48C298.6667 433.12 308.9067 424.5867 322.56 424.5867H494.9333V327.3067H199.68C187.7333 327.3067 175.7867 317.0667 175.7867 303.4133V202.72C119.4667 190.7733 76.8 141.28 76.8 83.2533 76.8 14.9867 131.4133-39.6267 199.68-39.6267 267.9467-39.6267 322.56 14.9867 322.56 83.2533 322.56 142.9867 279.8933 190.7733 223.5733 202.72V279.52H494.9333V154.9333C438.6133 142.9867 395.9467 93.4933 395.9467 35.4667 395.9467-32.8 450.56-87.4133 518.8267-87.4133 587.0933-87.4133 641.7067-32.8 641.7067 35.4667 641.7067 95.2 599.04 142.9867 542.72 154.9333V279.52H814.08V202.72C757.76 190.7733 715.0933 141.28 715.0933 83.2533 715.0933 14.9867 769.7067-39.6267 837.9733-39.6267S960.8533 14.9867 960.8533 83.2533C964.2667 137.8667 921.6 187.36 865.28 199.3067L865.28 199.3067ZM348.16 643.04H692.9067V470.6667H348.16V643.04L348.16 643.04ZM274.7733 79.84C274.7733 40.5867 242.3467 6.4533 201.3867 6.4533 158.72 6.4533 128 40.5867 128 79.84 128 112.2667 148.48 139.5733 177.4933 148.1067 182.6133 149.8133 184.32 149.8133 189.44 149.8133H213.3333C218.4533 149.8133 220.16 148.1067 225.28 148.1067 254.2933 137.8667 274.7733 110.56 274.7733 79.84L274.7733 79.84ZM593.92 30.3467C593.92-8.9067 561.4933-43.04 520.5333-43.04 477.8667-43.04 447.1467-8.9067 447.1467 30.3467 447.1467 71.3067 479.5733 103.7333 520.5333 103.7333 563.2 103.7333 593.92 71.3067 593.92 30.3467L593.92 30.3467ZM841.3867 6.4533C798.72 6.4533 768 40.5867 768 79.84 768 112.2667 788.48 139.5733 817.4933 148.1067H866.9867C896 137.8667 916.48 110.56 916.48 79.84 914.7733 40.5867 882.3467 6.4533 841.3867 6.4533L841.3867 6.4533Z"  horiz-adv-x="1024" vert-adv-y="1024"  />

      
      <glyph glyph-name="fangdajing1" unicode="&#xE607;" d="M972.8-101.0667L759.4667 86.6667C759.4667 86.6667 759.4667 86.6667 759.4667 86.6667 810.6667 146.4 836.2667 231.7333 836.2667 308.5333 836.2667 504.8 674.1333 666.9333 477.8667 666.9333S119.4667 513.3333 119.4667 317.0667 281.6-41.3333 477.8667-41.3333C571.7333-41.3333 657.0667-7.2 725.3333 52.5333 725.3333 52.5333 725.3333 52.5333 725.3333 52.5333L938.6667-135.2C947.2-143.7333 964.2667-143.7333 972.8-135.2 981.3333-126.6667 981.3333-109.6 972.8-101.0667ZM477.8667 9.8667C315.7333 9.8667 170.6667 146.4 170.6667 317.0667S307.2 624.2667 477.8667 624.2667 785.0667 487.7333 785.0667 317.0667 648.5333 9.8667 477.8667 9.8667Z"  horiz-adv-x="1024" vert-adv-y="1024"  />

      
      <glyph glyph-name="tongxun3" unicode="&#xE608;" d="M756.2971 693.5086C728.5029 709.6 694.8571 716.9143 659.7486 715.4514 656.8229 715.4514 653.8971 715.4514 652.4343 715.4514 652.4343 715.4514 650.9714 715.4514 650.9714 715.4514 593.92 715.4514 541.2571 642.3086 528.0914 547.2229 520.7771 484.32 532.48 427.2686 560.2743 395.0857 574.9029 377.5314 593.92 368.7543 614.4 368.7543 614.4 368.7543 617.3257 368.7543 617.3257 367.2914 618.7886 365.8286 620.2514 361.44 617.3257 352.6629 605.6229 323.4057 590.9943 294.1486 574.9029 264.8914 557.3486 234.1714 538.3314 204.9143 516.3886 177.12 516.3886 177.12 516.3886 177.12 516.3886 175.6571 513.4629 171.2686 510.5371 171.2686 509.0743 171.2686 504.6857 171.2686 500.2971 174.1943 497.3714 175.6571 484.2057 194.6743 460.8 204.9143 433.0057 204.9143 394.9714 204.9143 349.6229 185.8971 308.6629 153.7143 234.0571 95.2 203.3371 14.7429 229.6686-34.9943 232.5943-39.3829 232.5943-39.3829 234.0571-43.7714 251.6114-71.5657 273.5543-96.4343 301.3486-111.0629 327.68-125.6914 356.9371-133.0057 387.6571-133.0057 513.4629-133.0057 664.1371-15.9771 762.1486 158.1029 889.4171 384.8457 886.4914 618.9029 756.2971 693.5086ZM346.6971 402.4C333.5314 383.3829 329.1429 361.44 333.5314 339.4971 334.9943 327.7943 345.2343 319.0171 356.9371 319.0171 358.4 319.0171 359.8629 319.0171 361.3257 319.0171 374.4914 321.9429 383.2686 333.6457 380.3429 346.8114 378.88 355.5886 380.3429 365.8286 386.1943 373.1429 392.0457 380.4571 399.36 386.3086 409.6 387.7714 422.7657 390.6971 431.5429 402.4 428.6171 415.5657 425.6914 428.7314 413.9886 437.5086 400.8229 434.5829 377.4171 433.12 358.4 421.4171 346.6971 402.4ZM368.64 513.5771C288.1829 498.9486 235.52 422.88 250.1486 342.4229 251.6114 330.72 261.8514 323.4057 273.5543 323.4057 275.0171 323.4057 276.48 323.4057 277.9429 323.4057 291.1086 326.3314 299.8857 338.0343 296.96 351.2 286.72 405.3257 323.2914 456.5257 375.9543 466.7657 389.12 469.6914 397.8971 481.3943 394.9714 494.56 394.9714 506.2629 381.8057 515.04 368.64 513.5771ZM238.4457 477.0057C269.1657 522.3543 315.9771 551.6114 370.1029 561.8514 383.2686 564.7771 392.0457 576.48 389.12 589.6457 386.1943 602.8114 374.4914 611.5886 361.3257 608.6629 295.4971 596.96 236.9829 558.9257 198.9486 503.3371 160.9143 447.7486 146.2857 380.4571 157.9886 314.6286 159.4514 302.9257 169.6914 295.6114 181.3943 295.6114 182.8571 295.6114 184.32 295.6114 185.7829 295.6114 198.9486 298.5371 207.7257 310.24 204.8 323.4057 196.0229 377.5314 207.7257 431.6571 238.4457 477.0057Z"  horiz-adv-x="1024" vert-adv-y="1024"  />

      
      <glyph glyph-name="wode1" unicode="&#xE609;" d="M504.6857 702.2857C610.0114 702.2857 716.8 611.5886 716.8 545.76V405.3257C716.8 345.3486 689.0057 238.56 624.64 187.36 612.9371 178.5829 608.5486 163.9543 610.0114 150.7886 611.4743 136.16 620.2514 124.4571 633.4171 118.6057L882.1029 1.5771C893.8057-2.8114 909.8971-14.5143 914.2857-20.3657V-102.2857C914.2857-111.0629 906.9714-118.3771 899.6571-118.3771H504.6857 109.7143C100.9371-118.3771 95.0857-111.0629 95.0857-102.2857V-20.3657C99.4743-14.5143 114.1029-4.2743 127.2686 1.5771L374.4914 118.6057C387.6571 124.4571 396.4343 136.16 397.8971 150.7886 399.36 165.4171 393.5086 178.5829 383.2686 187.36 320.3657 238.56 292.5714 345.3486 292.5714 405.3257V545.76C292.5714 611.5886 399.36 702.2857 504.6857 702.2857L504.6857 702.2857 504.6857 702.2857Z"  horiz-adv-x="1024" vert-adv-y="1024"  />

      
      <glyph glyph-name="xiaoxi2" unicode="&#xE60A;" d="M513.4629 724.2286C279.4057 724.2286 89.2343 557.4629 89.2343 352.6629 89.2343 235.6343 152.1371 131.7714 248.6857 63.0171V-124.2286L434.4686-11.5886C460.8-15.9771 487.1314-18.9029 513.4629-18.9029 747.52-18.9029 937.6914 147.8629 937.6914 352.6629 937.6914 557.4629 747.52 724.2286 513.4629 724.2286ZM330.6057 292.6857C296.96 292.6857 270.6286 320.48 270.6286 352.6629 270.6286 386.3086 298.4229 412.64 330.6057 412.64S390.5829 384.8457 390.5829 352.6629C390.5829 320.48 362.7886 292.6857 330.6057 292.6857ZM516.3886 292.6857C482.7429 292.6857 456.4114 320.48 456.4114 352.6629 456.4114 386.3086 484.2057 412.64 516.3886 412.64S576.3657 384.8457 576.3657 352.6629C576.3657 320.48 550.0343 292.6857 516.3886 292.6857ZM702.1714 291.2229C668.5257 291.2229 642.1943 319.0171 642.1943 351.2 642.1943 384.8457 669.9886 411.1771 702.1714 411.1771 735.8171 411.1771 762.1486 383.3829 762.1486 351.2 762.1486 319.0171 735.8171 291.2229 702.1714 291.2229Z"  horiz-adv-x="1024" vert-adv-y="1024"  />

      
      <glyph glyph-name="xinwen" unicode="&#xE60B;" d="M807.4971 673.0286H201.8743C150.6743 673.0286 109.7143 632.0686 109.7143 582.3314V17.6686C109.7143-32.0686 150.6743-73.0286 201.8743-73.0286H808.96C860.16-73.0286 901.12-32.0686 901.12 17.6686V582.3314C899.6571 632.0686 858.6971 673.0286 807.4971 673.0286L807.4971 673.0286ZM216.5029 532.5943H791.4057V478.4686H216.5029V532.5943L216.5029 532.5943ZM531.0171 371.68H792.8686V317.5543H531.0171V371.68L531.0171 371.68ZM531.0171 248.8H792.8686V187.36H531.0171V248.8L531.0171 248.8ZM531.0171 111.2914H788.48V58.6286H531.0171V111.2914L531.0171 111.2914ZM216.5029 370.2171H465.1886V57.1657H216.5029V370.2171L216.5029 370.2171Z"  horiz-adv-x="1024" vert-adv-y="1024"  />

      
      <glyph glyph-name="play6" unicode="&#xE60C;" d="M819.5982 329.0547L267.8294 677.9469C257.2147 684.6731 243.7623 685.0804 232.7955 679.0101 221.7653 672.9388 214.9357 661.357 214.9357 648.8011L214.9357-48.8093C214.9357-61.3591 221.7653-72.9491 232.7955-79.0183 237.9724-81.8764 243.6988-83.2916 249.4181-83.2916 255.8332-83.2916 262.2463-81.5049 267.8294-77.9796L819.5992 270.7682C829.5989 277.0861 835.6723 288.0846 835.6723 299.9151 835.6712 311.7363 829.5989 322.744 819.5982 329.0547L819.5982 329.0547ZM819.5982 329.0547"  horiz-adv-x="1024" vert-adv-y="1024"  />

      
      <glyph glyph-name="pause4" unicode="&#xE60D;" d="M428.8-179.488V779.744C428.8 797.6128 414.7712 812 397.056 812H210.944C193.2032 812 179.2 797.5872 179.2 779.744V-179.488C179.2-197.3056 193.2288-212 210.944-212H397.056C414.7712-212 428.8-197.5872 428.8-179.488ZM813.056 812H626.944C609.5104 812 595.2 797.5872 595.2 779.744V-179.488C595.2-197.3312 609.2288-212 626.944-212H813.056C830.4896-212 844.8-197.5872 844.8-179.488V779.744C844.8 797.6128 830.7712 812 813.056 812Z"  horiz-adv-x="1024" vert-adv-y="1024"  />

      
      <glyph glyph-name="xiajiantou21" unicode="&#xE60E;" d="M998.4 407.2C982.4 437.6 944 448.8 912 434.4L515.2 258.4 515.2 258.4 112 437.6C83.2 450.4 48 442.4 30.4 416.8 6.4 383.2 20.8 338.4 56 322.4L504 127.2C512 124 520 125.6 526.4 127.2L968 322.4C1001.6 336.8 1016 375.2 998.4 407.2Z"  horiz-adv-x="1024" vert-adv-y="1024"  />

      
      <glyph glyph-name="jiantou3" unicode="&#xE60F;" d="M511.999 812C228.672 812 0 582.213 0 300.001 0 17.787 229.787-211.998 511.999-211.998 794.213-211.998 1023.998 17.786 1023.998 300.001 1023.997 582.213 795.328 812 511.999 812ZM692.703 272.116L438.379 16.672C430.572 8.867 420.532 5.517 410.492 5.517 400.452 5.517 390.415 8.867 382.605 16.672 366.987 32.287 366.987 56.827 382.605 72.447L610.164 300.001 383.719 524.211C368.106 539.828 368.106 564.366 383.719 578.868 399.336 594.483 423.879 594.483 438.379 578.868L692.703 326.771C700.518 318.964 703.858 310.039 703.858 298.884 703.858 289.957 700.518 279.921 692.703 272.116L692.703 272.116Z"  horiz-adv-x="1024" vert-adv-y="1024"  />

      
      <glyph glyph-name="xiajiantou2" unicode="&#xE610;" d="M959.1467 508.2133C938.6667 528.6933 907.9467 528.6933 887.4667 508.2133L494.9333 98.6133 105.8133 508.2133C85.3333 525.28 54.6133 525.28 34.1333 508.2133 13.6533 487.7333 13.6533 457.0133 34.1333 436.5333L460.8-7.2C481.28-27.68 512-27.68 532.48-7.2L959.1467 436.5333C976.2133 457.0133 976.2133 487.7333 959.1467 508.2133Z"  horiz-adv-x="1024" vert-adv-y="1024"  />

      
      <glyph glyph-name="shanchu1" unicode="&#xE611;" d="M512 812C228.6933 812 0 583.3067 0 300 0 16.6933 228.6933-212 512-212 795.3067-212 1024 16.6933 1024 300 1024 583.3067 795.3067 812 512 812ZM812.3733 47.4133C826.0267 33.76 826.0267 13.28 812.3733-0.3733 798.72-14.0267 778.24-14.0267 764.5867-0.3733L512 252.2133 259.4133-0.3733C245.76-14.0267 225.28-14.0267 211.6267-0.3733 197.9733 13.28 197.9733 33.76 211.6267 47.4133L464.2133 300 211.6267 552.5867C197.9733 566.24 197.9733 586.72 211.6267 600.3733 225.28 614.0267 245.76 614.0267 259.4133 600.3733L512 347.7867 764.5867 600.3733C778.24 614.0267 798.72 614.0267 812.3733 600.3733 826.0267 586.72 826.0267 566.24 812.3733 552.5867L559.7867 300 812.3733 47.4133Z"  horiz-adv-x="1024" vert-adv-y="1024"  />

      
      <glyph glyph-name="fangdajing" unicode="&#xE612;" d="M970.24-101.92L675.84 174.56C675.84 174.56 675.84 174.56 673.28 174.56 724.48 236 752.64 315.36 752.64 399.84 752.64 596.96 591.36 758.24 394.24 758.24S35.84 596.96 35.84 399.84 197.12 41.44 394.24 41.44C488.96 41.44 573.44 77.28 637.44 136.16 637.44 136.16 637.44 133.6 640 133.6L934.4-142.88C944.64-153.12 960-153.12 970.24-142.88 980.48-127.52 980.48-112.16 970.24-101.92ZM396.8 95.2C227.84 95.2 89.6 233.44 89.6 402.4 89.6 571.36 227.84 709.6 396.8 709.6 565.76 709.6 704 571.36 704 402.4 704 233.44 565.76 95.2 396.8 95.2Z"  horiz-adv-x="1024" vert-adv-y="1024"  />

      
      <glyph glyph-name="jiahao1" unicode="&#xE613;" d="M952.8889 342.6667H526.2222V769.3333C526.2222 786.4 514.8444 797.7778 497.7778 797.7778S469.3333 786.4 469.3333 769.3333V342.6667H42.6667C25.6 342.6667 14.2222 331.2889 14.2222 314.2222S25.6 285.7778 42.6667 285.7778H469.3333V-140.8889C469.3333-157.9556 480.7111-169.3333 497.7778-169.3333S526.2222-157.9556 526.2222-140.8889V285.7778H952.8889C969.9556 285.7778 981.3333 297.1556 981.3333 314.2222S969.9556 342.6667 952.8889 342.6667Z"  horiz-adv-x="1024" vert-adv-y="1024"  />

      
      <glyph glyph-name="fanhui" unicode="&#xE614;" d="M79.6444 271.5556L594.4889 703.9111C605.8667 715.2889 605.8667 732.3556 594.4889 743.7333S566.0444 755.1111 554.6667 743.7333L14.2222 291.4667C2.8444 280.0889 2.8444 263.0222 14.2222 251.6444L551.8222-172.1778C563.2-183.5556 580.2667-183.5556 591.6444-172.1778S603.0222-143.7333 591.6444-132.3556L79.6444 271.5556Z"  horiz-adv-x="1024" vert-adv-y="1024"  />

      
      <glyph glyph-name="youjiantou3" unicode="&#xE615;" d="M823.296 325.9413L365.2267 784.0107C351.5733 796.9813 330.4107 796.9813 316.7573 784.0107 303.104 770.3573 303.104 749.1947 316.7573 735.5413L752.9813 300 324.9493-128.032C311.9787-141.0027 311.9787-162.1653 324.9493-175.136S359.0827-188.1067 372.0533-175.136L817.152 269.28C819.2 271.328 819.8827 273.376 821.248 275.424 822.6133 276.1067 823.296 276.7893 824.6613 277.472 836.2667 291.1253 836.2667 312.9707 823.296 325.9413L823.296 325.9413Z"  horiz-adv-x="1024" vert-adv-y="1024"  />

      
      <glyph glyph-name="zan" unicode="&#xE616;" d="M950.9547 402.4H670.3787C779.6053 792.2027 595.2853 812 595.2853 812 517.4613 812 533.8453 752.608 527.7013 742.368 527.7013 551.904 318.8053 402.4 318.8053 402.4V-137.5893C318.8053-190.8373 393.8987-209.952 423.2533-209.952H845.1413C884.736-209.952 917.504-108.9173 917.504-108.9173 1021.952 235.1467 1021.952 337.5467 1021.952 337.5467 1021.952 408.544 950.9547 402.4 950.9547 402.4L950.9547 402.4 950.9547 402.4ZM203.4347 402.4H35.4987C0.6827 402.4 0 369.632 0 369.632L34.816-175.136C34.816-209.952 70.3147-209.952 70.3147-209.952H215.7227C245.76-209.952 245.76-187.424 245.76-187.424V361.44C246.4427 403.0827 203.4347 402.4 203.4347 402.4L203.4347 402.4 203.4347 402.4Z"  horiz-adv-x="1024" vert-adv-y="1024"  />

      
      <glyph glyph-name="xing4" unicode="&#xE617;" d="M1021.952 424.2453C1016.4907 441.312 1001.472 454.2827 983.04 457.0133L687.4453 500.0213 555.008 768.3093C543.4027 792.2027 514.7307 801.76 490.8373 790.1547 481.28 785.376 473.7707 777.8667 469.6747 768.3093L336.5547 500.0213 40.96 457.0133C23.2107 454.2827 8.192 441.9947 2.048 424.2453-3.4133 407.1787 1.3653 388.064 14.336 375.0933L228.6933 166.1973 178.176-128.7147C173.3973-154.656 191.1467-179.232 217.088-184.0107 227.328-186.0587 238.2507-184.0107 247.808-179.232L512-39.968 776.8747-179.232C800.0853-191.52 829.44-181.9627 841.728-158.752 846.5067-149.8773 847.872-138.9547 846.5067-128.7147L795.9893 166.1973 1009.664 375.0933C1022.6347 388.064 1027.4133 407.1787 1021.952 424.2453Z"  horiz-adv-x="1024" vert-adv-y="1024"  />

      
      <glyph glyph-name="add6" unicode="&#xE618;" d="M512-20A32-32 0 0 0 544 12V268H800A32-32 0 0 0 800 332H544V588A32-32 0 0 0 480 588V332H224A32-32 0 0 0 224 268H480V12A32-32 0 0 0 512-20"  horiz-adv-x="1024" vert-adv-y="1024"  />

      
      <glyph glyph-name="trash6" unicode="&#xE619;" d="M736 459.968L736.096 12H735.968L288 12.032 288.032 460 736 459.968ZM384 588H640V524H384V588ZM832 524H704V609.376C704 629.952 687.232 652 640.16 652H383.84C336.768 652 320 629.952 320 609.376V524H192A32-32 0 1 0 192 460H224V12.032C224-23.296 252.704-52 288.032-52H735.968A64.064-64.064 0 0 0 800 12.032V460H832A32-32 0 1 0 832 524ZM608 121.44A32-32 0 0 0 640 153.44V364A32-32 0 1 0 576 364V153.44A32-32 0 0 0 608 121.44M416 121.44A32-32 0 0 0 448 153.44V364A32-32 0 1 0 384 364V153.44A32-32 0 0 0 416 121.44"  horiz-adv-x="1024" vert-adv-y="1024"  />

      
      <glyph glyph-name="loading" unicode="&#xE61A;" d="M751.104 525.28C751.104 505.824 766.976 489.44 786.944 489.44 806.4 489.44 822.784 505.312 822.784 525.28 822.784 544.736 806.912 561.12 786.944 561.12S751.104 545.248 751.104 525.28ZM889.856 229.344C864.256 229.344 843.776 249.824 843.776 275.424S864.256 321.504 889.856 321.504 935.936 301.024 935.936 275.424C936.448 249.824 915.456 229.344 889.856 229.344ZM535.04 515.04C471.04 515.04 418.816 567.264 418.816 631.264 418.816 695.776 471.04 748 535.552 748S652.288 695.776 652.288 631.264 599.552 515.04 535.04 515.04ZM287.232 422.368C228.352 422.368 180.736 469.984 180.736 528.864S228.352 635.36 287.232 635.36 393.728 587.744 393.728 528.864C393.728 469.984 345.6 422.368 287.232 422.368ZM181.76 181.728C130.048 181.728 88.064 223.712 88.064 275.424S130.048 369.12 181.76 369.12 275.456 327.136 275.456 275.424 233.472 181.728 181.76 181.728ZM287.232-56.864C243.2-56.864 207.872-21.024 207.872 22.496S243.712 101.856 287.232 101.856 366.592 66.016 366.592 22.496 330.752-56.864 287.232-56.864ZM535.04-148C496.64-148 465.408-116.768 465.408-78.368S496.64-8.736 535.04-8.736 604.672-39.968 604.672-78.368 573.44-148 535.04-148ZM786.944-30.752C755.712-30.752 730.624-5.664 730.624 25.568S755.712 81.888 786.944 81.888 843.264 56.8 843.264 25.568C843.264-5.152 818.176-30.752 786.944-30.752Z"  horiz-adv-x="1024" vert-adv-y="1024"  />

      
      <glyph glyph-name="arrows" unicode="&#xE61B;" d="M747.372 339.219L355.111 731.095C333.456 752.752 298.327 752.752 276.669 731.095 254.958 709.441 254.958 674.364 276.669 652.709L629.656 300.022 276.669-52.718C254.958-74.371 254.958-109.449 276.669-131.101 298.327-152.759 333.455-152.759 355.111-131.101L747.372 260.833C769.024 282.43 769.024 317.564 747.372 339.219Z"  horiz-adv-x="1024" vert-adv-y="1024"  />

      
      <glyph glyph-name="tanhao" unicode="&#xE61C;" d="M512 28.2304C445.6448 28.2304 391.8848-25.5296 391.8848-91.8848S445.6448-212 512-212 632.1152-158.24 632.1152-91.8848 578.3552 28.2304 512 28.2304M508.5184 122.2336C565.6576 122.2336 611.9424 168.6208 611.9424 225.6576V708.576C611.9424 765.7152 565.6576 812 508.5184 812S405.0944 765.6128 405.0944 708.576V225.6576C405.0944 168.5184 451.3792 122.2336 508.5184 122.2336"  horiz-adv-x="1024" vert-adv-y="1024"  />

      
      <glyph glyph-name="fujian" unicode="&#xE61D;" d="M360.2995 234.5514C346.1645 220.3847 338.3946 201.4853 338.3946 181.3712 338.3946 161.3205 346.1656 142.4057 360.2995 128.1756 388.4721 99.7789 437.5274 99.7789 465.7317 128.1756 481.0496 143.605 515.2986 177.982 555.6384 218.4507 614.1111 277.1312 685.3261 348.5549 729.6966 393.2447 796.1317 460.303 796.1317 569.3178 729.6966 636.3761 697.5106 668.8343 654.6914 686.7576 609.1542 686.7576S520.7662 668.8333 488.532 636.3761C454.7793 602.3031 420.6101 568.1819 382.9718 530.6235 337.051 484.8306 286.0617 433.873 224.3113 371.6754 174.0096 320.9256 146.3476 253.4836 146.3476 181.7406 146.3476 110.013 174.0086 42.5546 224.3113-8.1789 328.1932-112.9081 497.2148-112.9081 601.0159-8.1789L743.8786 135.8351C752.193 144.2293 765.7037 144.2293 774.0181 135.8351 782.3641 127.4726 782.3641 113.8657 774.0181 105.4715L631.187-38.5752C570.9563-99.3023 491.7616-129.7293 412.6794-129.7293 333.5646-129.7293 254.419-99.3657 194.2353-38.5752 135.8106 20.2486 103.7361 98.4844 103.7361 181.7396 103.7361 264.9477 135.8106 343.1825 194.2353 402.038 255.9212 464.3481 307.0384 515.3057 352.9593 561.1621 390.5658 598.657 424.735 632.7771 458.4396 666.755 498.6842 707.3833 552.2001 729.7364 609.1532 729.7364 666.0265 729.7364 719.5424 707.3833 759.7869 666.755 842.8988 582.9882 842.8988 446.6326 759.7869 362.8811 715.4645 318.1279 644.2014 246.6397 585.697 187.992 545.4043 147.5714 511.1553 113.2425 495.8701 97.8131 473.7575 75.5245 444.3375 63.2284 413.0141 63.2284 381.707 63.2284 352.2389 75.5245 330.1263 97.8131 307.9655 120.1662 295.7974 149.794 295.7974 181.3722 295.7974 212.9351 307.9655 242.6263 330.1263 264.9794 330.1263 264.9794 587.1204 524.3711 595.5146 532.7663 603.9088 541.1452 617.5474 541.1452 625.9416 532.7663 634.2876 524.3722 634.2876 510.7653 625.9416 502.3711 617.5484 494.0076 360.2995 234.5514 360.2995 234.5514L360.2995 234.5514ZM856.3308 197.2171C850.9103 197.2171 845.4581 199.2954 841.3004 203.5166 832.938 211.9107 832.938 225.4859 841.3004 233.8801L883.8956 276.859C892.258 285.2531 905.7206 285.2531 914.0831 276.859 922.3494 268.4648 922.3494 254.8896 914.0831 246.4954L871.4399 203.5166C867.2832 199.2954 861.8147 197.2171 856.3308 197.2171L856.3308 197.2171Z"  horiz-adv-x="1024" vert-adv-y="1024"  />

      
      <glyph glyph-name="delete" unicode="&#xE61E;" d="M762.218 677.135H263.15C217.203 677.135 179.972 639.907 179.972 593.96V566.235H845.394V593.96C845.395 639.907 808.165 677.135 762.217 677.135M616.927 732.585L629.165 645.078H396.203L408.44 732.585H616.928M623.588 788.035H401.783C378.903 788.035 357.621 769.515 354.426 746.826L338.207 630.81C335.039 608.15 351.177 589.629 374.057 589.629H651.315C674.194 589.629 690.332 608.148 687.138 630.837L670.918 746.854C667.748 769.516 646.467 788.035 623.588 788.035M776.081 510.787H249.288C218.8 510.787 196.083 485.932 198.845 455.554L244.28-43.925C247.014-74.304 274.253-99.158 304.74-99.158H720.63C751.117-99.158 778.356-74.302 781.09-43.925L826.524 455.555C829.285 485.932 806.568 510.787 776.081 510.787M401.78 11.74H318.602L290.876 399.887H401.78V11.74ZM568.136 11.74H457.233V399.887H568.137V11.74ZM706.765 11.74H623.587V399.887H734.49L706.766 11.74Z"  horiz-adv-x="1024" vert-adv-y="1024"  />

      
      <glyph glyph-name="biaodan1" unicode="&#xE61F;" d="M502.3343-4.1504L506.3042 60.0023 505.3418 59.4875 520.8992 239.6005 521.343 239.2816 842.1145 720.3576 842.1145 811.9589 0 811.9589 0-180.0838 842.1145-180.0838 842.1145 299.7067 709.1219 103.3265 502.3343-4.1504 502.3343-4.1504ZM130.4976 596.1678L658.3694 595.9757 658.3069 543.7802 130.4302 543.971 130.4976 596.1678 130.4976 596.1678ZM130.4976 385.6483L537.1542 385.4575 537.1542 333.198 130.4302 333.4528 130.4976 385.6483 130.4976 385.6483ZM430.5916 122.6736L130.4976 122.8693 130.4976 175.1288 430.6542 174.874 430.5916 122.6736 430.5916 122.6736ZM882.0471 721.9659L832.642 647.0775 840.0008 642.1937 839.3608 641.2271 842.1145 639.2999 842.1145 640.8454 974.5909 552.5196 1023.9997 627.4079 882.0471 721.9659ZM811.2945 613.4544L953.1546 518.9304 716.2944 160.3142 574.4293 254.8333 811.2945 613.4544 811.2945 613.4544ZM549.3755 222.3124L535.4893 48.1732 691.0744 127.0477 549.3755 222.3124Z"  horiz-adv-x="1024" vert-adv-y="1024"  />

      
      <glyph glyph-name="shanchu" unicode="&#xE620;" d="M512 780C246.4 780 32 565.6 32 300S246.4-180 512-180 992 34.4 992 300 777.6 780 512 780M713.6 98.4C700.8 85.6 678.4 85.6 665.6 98.4L512 252 358.4 98.4C345.6 85.6 323.2 85.6 310.4 98.4 297.6 111.2 297.6 133.6 310.4 146.4L464 300 310.4 453.6C297.6 466.4 297.6 488.8 310.4 501.6 323.2 514.4 345.6 514.4 358.4 501.6L512 348 665.6 501.6C678.4 514.4 700.8 514.4 713.6 501.6 726.4 488.8 726.4 466.4 713.6 453.6L560 300 713.6 146.4C729.6 133.6 729.6 111.2 713.6 98.4M713.6 98.4Z"  horiz-adv-x="1024" vert-adv-y="1024"  />

      
      <glyph glyph-name="rile" unicode="&#xE621;" d="M128.7769 747.15L128.7769 747.1439C128.9458 747.1449 129.1136 747.15 129.2835 747.15L128.7769 747.15ZM192.7254 1.8577L384.5544 1.8577 384.5544 129.7382 192.7254 129.7382 192.7254 1.8577ZM832.1495 811.0821L768.2123 811.0821 768.2123 619.2531 832.1495 619.2531 832.1495 811.0821ZM256.6626 811.0821L192.7254 811.0821 192.7254 619.2531 256.6626 619.2531 256.6626 811.0821ZM192.7254 193.6816L384.5544 193.6816 384.5544 321.5672 192.7254 321.5672 192.7254 193.6816ZM895.5914 747.15C895.7603 747.15 895.9281 747.1439 896.098 747.1439L896.098 747.15 895.5914 747.15ZM704.269 193.6816L832.1495 193.6816 832.1495 321.5672 704.269 321.5672 704.269 193.6816ZM896.098 747.1439L896.098 651.2222C896.098 598.259 853.1498 555.3108 800.1804 555.3108 747.211 555.3108 704.269 598.259 704.269 651.2284L704.269 747.15 320.611 747.15 320.611 651.2222C320.611 598.259 277.6629 555.3108 224.6884 555.3108 171.7139 555.3108 128.7769 598.259 128.7769 651.2284L128.7769 747.1439C58.0941 746.8707 0.8964 689.499 0.8964 618.7578L0.8964-83.0204C0.8964-153.9202 58.3673-211.999 129.2835-211.999L895.5914-211.999C966.4963-211.999 1023.9785-154.5229 1023.9785-83.6181L1023.9785 618.7578C1023.9785 689.499 966.7696 746.8696 896.098 747.1439ZM959.2544-85.1796C959.2544-120.4919 930.6295-149.1281 895.3172-149.1281L127.9962-149.1281C92.6839-149.1281 64.059-120.4929 64.059-85.1796L64.059 383.7331C64.059 419.0453 92.6839 447.6764 127.9962 447.6764L895.3172 447.6764C930.6294 447.6764 959.2544 419.0463 959.2544 383.7331L959.2544-85.1796ZM448.4977 193.6816L640.3216 193.6816 640.3216 321.5672 448.4977 321.5672 448.4977 193.6816ZM448.4977 1.8577L640.3216 1.8577 640.3216 129.7382 448.4977 129.7382 448.4977 1.8577ZM704.269 1.8577L832.1495 1.8577 832.1495 129.7382 704.269 129.7382 704.269 1.8577Z"  horiz-adv-x="1024" vert-adv-y="1024"  />

      
      <glyph glyph-name="biaoxing" unicode="&#xE622;" d="M477.182 719.9792C496.0518 760.0079 526.9362 760.0079 545.8059 719.9792L627.5466 546.6373C646.4164 506.6137 697.8038 468.3922 741.7108 461.7182L918.2751 434.8748C962.1821 428.2008 972.7272 396.8406 941.718 365.1928L811.1902 232.0474C780.1553 200.3924 760.6358 138.7935 767.7846 95.1556L799.2247-96.6386C806.3735-140.2826 780.4245-158.4831 741.546-137.0868L582.1753-49.3915C543.2978-28.0014 479.6819-28.0014 440.8045-49.3915L281.4276-137.0868C242.5553-158.4831 216.5879-140.2826 223.7479-96.6386L255.1706 95.1556C262.3327 138.7935 242.7937 200.3934 211.7773 232.0474L81.2781 365.1928C50.2556 396.8416 60.7946 428.2018 104.7139 434.8748L281.2711 461.7182C325.1903 468.3922 376.5593 506.6086 395.4352 546.6373L477.182 719.9792 477.182 719.9792ZM477.182 719.9792"  horiz-adv-x="1024" vert-adv-y="1024"  />

      
      <glyph glyph-name="jiahao" unicode="&#xE623;" d="M511.4883 747.5317C264.5144 747.5317 64.3035 547.3208 64.3035 300.3469 64.3035 53.375 264.5144-146.8379 511.4883-146.8379S958.6732 53.375 958.6732 300.3469C958.6732 547.3208 758.4623 747.5317 511.4883 747.5317ZM735.2834 275.5051L536.3322 275.5051 536.3322 76.5519C536.3322 62.944 525.305 51.9127 511.4873 51.9127 497.7679 51.9127 486.6425 63.2233 486.6425 76.5519L486.6425 275.5051 287.6913 275.5051C274.0854 275.5051 263.0521 286.5323 263.0521 300.3469 263.0521 314.0694 274.3627 325.1918 287.6913 325.1918L486.6445 325.1918 486.6445 524.144C486.6445 537.7519 497.6717 548.7831 511.4894 548.7831 525.2088 548.7831 536.3342 537.4725 536.3342 524.144L536.3342 325.1907 735.2844 325.1907C748.8954 325.1907 759.9266 314.1636 759.9266 300.3459 759.9246 286.6274 748.614 275.5051 735.2834 275.5051Z"  horiz-adv-x="1024" vert-adv-y="1024"  />

      
      <glyph glyph-name="shangchuanfujian" unicode="&#xE624;" d="M408.4544-45.856C340.8704-113.44 231.5584-114.016 164.7424-47.264 97.7984 19.744 98.4384 128.736 166.4704 196.768L615.4944 645.792C683.2704 713.568 792.7104 714.272 859.4624 647.456 926.3424 580.64 925.6384 471.328 857.9264 403.616A57.472-57.472 0 0 0 857.4784 322.336 57.472-57.472 0 0 0 938.7584 322.848C1051.5264 435.68 1052.6784 617.696 941.1904 729.248 829.8304 840.608 647.6224 839.456 534.7264 726.56L85.7024 277.536C-27.4496 164.32-28.6016-17.44 83.0144-128.992 194.3744-240.352 376.4544-239.392 489.2224-126.624L651.6544 35.808 734.5344 118.688C802.4384 186.592 802.8864 295.328 735.9424 362.4 668.7424 429.536 559.8784 428.64 491.9744 360.736L331.3984 200.16 328.3904 197.152A57.472-57.472 0 0 0 327.8784 115.872 57.472-57.472 0 0 0 409.1584 116.384L412.1664 119.392 572.8064 280.032A57.088-57.088 0 1 1 653.8304 199.52L570.8864 116.576 408.4544-45.856Z"  horiz-adv-x="1024" vert-adv-y="1024"  />

      
      <glyph glyph-name="xiajiantou" unicode="&#xE625;" d="M512.133 187.019L219.973 479.174C207.703 491.454 187.787 491.454 175.516 479.174 163.235 466.904 163.235 446.988 175.516 434.717L489.904 120.329C502.174 108.049 522.09 108.049 534.361 120.329L848.748 434.717C854.888 440.853 857.959 448.9 857.959 456.945S854.888 473.037 848.748 479.173C836.478 491.453 816.562 491.453 804.291 479.173L512.132 187.018Z"  horiz-adv-x="1024" vert-adv-y="1024"  />

      
      <glyph glyph-name="xiajiantou_1" unicode="&#xE626;" d="M511.867 412.981L804.027 120.826C816.297 108.546 836.213 108.546 848.484 120.826 860.765 133.096 860.765 153.012 848.484 165.283L534.096 479.671C521.826 491.951 501.91 491.951 489.639 479.671L175.252 165.283C169.112 159.147 166.041 151.1 166.041 143.055S169.112 126.963 175.252 120.827C187.522 108.547 207.438 108.547 219.709 120.827L511.868 412.982Z"  horiz-adv-x="1024" vert-adv-y="1024"  />

      
      <glyph glyph-name="xieyoujian" unicode="&#xE627;" d="M716.9416 590.1769L643.2114 535.1455 648.6564 527.8514 647.6515 527.1085 649.693 524.3497 650.2047 525.7772 748.0205 394.7264 821.7497 449.7578ZM374.8805 119.698L270.0635 260.1199 623.3553 523.8324 728.1724 383.4105 374.8805 119.698ZM252.8661 245.9643L202.2493 104.8709 357.2014 104.9394ZM211.8715 53.7127L794.3384 53.7127 794.3384 12.7805 211.8715 12.7805 211.8715 53.7127Z"  horiz-adv-x="1024" vert-adv-y="1024"  />

      
      <glyph glyph-name="xingbiao" unicode="&#xE628;" d="M221.6511-170.6263C214.9278-170.6263 208.4632-167.6525 204.1965-162.4808 199.8006-157.3091 197.9905-150.4566 199.1541-143.8626L252.5521 167.3455 26.2895 387.7899C20.0834 393.8667 17.7561 402.9172 20.4713 411.1919 23.1864 419.4667 30.2975 425.5434 38.9602 426.8364L351.4612 472.2182 491.2268 755.3697C495.1056 763.1273 502.9925 768.1697 511.7844 768.1697 520.447 768.1697 528.4632 763.2566 532.342 755.3697L672.1076 472.2182 984.6087 426.8364C993.2713 425.5434 1000.3824 419.596 1003.0975 411.1919 1005.8127 402.9172 1003.4854 393.8667 997.2794 387.7899L771.0167 167.3455 824.4147-143.8626C825.8369-152.396 822.346-161.1879 815.3642-166.2303 808.2531-171.402 798.944-172.0485 791.3157-167.9111L511.7844-21.0343 232.2531-167.9111C229.0208-169.7212 225.2713-170.6263 221.6511-170.6263ZM91.4531 388.1778L293.0208 191.7818C298.4511 186.4808 300.9076 178.9818 299.6147 171.4828L252.0349-105.8505 501.0531 25.1232C507.7763 28.6141 515.6632 28.6141 522.3864 25.1232L771.4046-105.8505 723.8248 171.4828C722.5319 178.8525 724.9885 186.4808 730.4188 191.7818L931.9864 388.1778 653.4895 428.6465C645.9905 429.6808 639.5258 434.4646 636.2935 441.1879L511.7844 693.5677 387.2753 441.1879C383.9137 434.4646 377.4491 429.8101 370.0794 428.6465L91.4531 388.1778ZM91.4531 388.1778"  horiz-adv-x="1024" vert-adv-y="1024"  />

      
      <glyph glyph-name="duihao2" unicode="&#xE629;" d="M486.4-0.8C467.2-26.4 428.8-26.4 403.2-7.2L32 280.8C19.2 287.2 12.8 306.4 25.6 325.6S57.6 344.8 70.4 332L396.8 82.4C422.4 63.2 460.8 63.2 480 88.8L947.2 620C960 632.8 979.2 632.8 992 620 1004.8 607.2 1004.8 588 992 575.2L486.4-0.8Z"  horiz-adv-x="1024" vert-adv-y="1024"  />

      
      <glyph glyph-name="user7" unicode="&#xE62A;" d="M182.4003-37.2231C182.4003-34.9719 182.298-32.6184 182.298-30.3671 182.298 108.4925 272.4493 226.8864 398.7225 272.0132 342.9535 307.4188 306.013 368.8158 306.013 438.6038 306.013 548.2998 397.0852 637.2231 509.4418 637.2231S712.8706 548.2998 712.8706 438.6038C712.8706 369.5321 676.7487 308.7491 622.003 273.1388 750.0158 228.9329 841.702 109.7204 841.702-30.3671 841.702-32.6184 841.702-34.9719 841.5997-37.2231L182.4003-37.2231ZM182.4003-37.2231C182.4003-34.9719 182.298-32.6184 182.298-30.3671 182.298 108.4925 272.4493 226.8864 398.7225 272.0132 342.9535 307.4188 306.013 368.8158 306.013 438.6038 306.013 548.2998 397.0852 637.2231 509.4418 637.2231S712.8706 548.2998 712.8706 438.6038C712.8706 369.5321 676.7487 308.7491 622.003 273.1388 750.0158 228.9329 841.702 109.7204 841.702-30.3671 841.702-32.6184 841.702-34.9719 841.5997-37.2231L182.4003-37.2231Z"  horiz-adv-x="1024" vert-adv-y="1024"  />

      
      <glyph glyph-name="psd" unicode="&#xE62B;" d="M374.3595 475.7303C374.3595 526.6009 387.7664 644.9054 511.9908 644.9054 631.7462 644.9054 649.622 538.9144 649.622 475.7303L649.622 438.4677 752.8452 438.4677 752.8452 475.7303C752.8452 641.2102 658.2908 748.1242 511.9908 748.1242S271.1364 641.2092 271.1364 475.7303L271.1364 438.4677 374.3595 438.4677 374.3595 475.7303ZM752.8544 404.0549L271.1456 404.0549C214.1583 404.0549 167.9224 357.8199 167.9224 300.836L167.9224-43.2271C167.9224-100.214 214.1583-146.446 271.1456-146.446L752.8544-146.446C809.8427-146.446 856.0776-100.214 856.0776-43.2271L856.0776 300.836C856.0776 357.8199 809.8427 404.0549 752.8544 404.0549ZM546.407 103.9396L546.407 25.5861C546.407 6.6355 530.9504-8.8205 511.999-8.8205 493.0466-8.8205 477.5909 6.6345 477.5909 25.5861L477.5909 103.9396C457.0932 115.8683 443.1828 137.809 443.1828 163.2116 443.1828 201.2131 473.9938 232.0238 511.998 232.0238 550 232.0238 580.8131 201.2131 580.8131 163.2116 580.8151 137.809 566.9037 115.8683 546.407 103.9396Z"  horiz-adv-x="1024" vert-adv-y="1024"  />

      
      <glyph glyph-name="guanbi" unicode="&#xE62C;" d="M764.928-7.2C794.624-7.2 819.2 17.376 819.2 47.072 819.2 62.432 813.056 75.744 802.816 84.96L587.776 300 801.792 514.016C812.032 524.256 818.176 537.568 818.176 551.904 818.176 581.6 793.6 606.176 763.904 606.176 748.544 606.176 735.232 600.032 726.016 589.792L512 375.776 296.96 590.816C286.72 601.056 273.408 607.2 259.072 607.2 229.376 607.2 204.8 582.624 204.8 552.928 204.8 537.568 210.944 524.256 221.184 515.04L436.224 300 222.208 87.008C211.968 76.768 205.824 63.456 205.824 49.12 205.824 19.424 230.4-5.152 260.096-5.152 275.456-5.152 288.768 0.992 297.984 11.232L512 224.224 727.04 9.184C736.256-1.056 749.568-7.2 764.928-7.2Z"  horiz-adv-x="1024" vert-adv-y="1024"  />

      
      <glyph glyph-name="youjiantou1" unicode="&#xE62D;" d="M511.6776 812C330.9376 812 184 664.9656 184 484.3184 184 303.6752 330.9376 156.6408 511.6776 156.6408 692.3216 156.6408 839.356 303.6752 839.356 484.3184 839.356 664.9656 692.3688 812 511.6776 812ZM511.6776 200.3624C354.9064 200.3624 227.3464 327.7816 227.3464 484.3184 227.3432 640.9032 354.856 768.3248 511.6776 768.3248 668.4032 768.3248 795.9624 640.9032 795.9624 484.3184 795.9624 327.7408 668.4 200.3624 511.6776 200.3624ZM571.1744 303.8624L491.832 664.8248 491.832 664.8248C496.044 664.8248 500.2096 663.2808 503.3032 660.0464L677.86 484.3688 503.3944 308.5904C497.0288 302.2248 486.732 302.2248 480.3632 308.5904 473.9976 315.0968 473.9976 325.44 480.3632 331.8088L631.8912 484.3688 480.2688 636.8776C473.9032 643.3368 473.9032 653.6368 480.2688 660 483.4536 663.2808 487.6192 664.8248 491.832 664.8248L491.832 664.8248ZM627.4168 466.9336L362.696 466.9336C353.1968 466.9336 345.496 474.6344 345.496 484.1336L345.496 484.1336C345.496 493.6328 353.1968 501.3336 362.696 501.3336L627.4168 501.3336C636.916 501.3336 644.6168 493.6328 644.6168 484.1336L644.6168 484.1336C644.6168 474.6344 636.916 466.9336 627.4168 466.9336Z"  horiz-adv-x="1024" vert-adv-y="1024"  />

      
      <glyph glyph-name="jiantou" unicode="&#xE62E;" d="M912.2253 394.2817L560.514 745.993C533.0452 773.4618 488.5197 773.4628 461.0478 745.993L109.3366 394.2817C81.8678 366.8129 81.8668 322.2874 109.3366 294.8155 136.8054 267.3467 181.3309 267.3457 208.8028 294.8155L440.4408 526.4535V-147.8474C440.4408-186.7133 471.9176-218.1901 510.7835-218.1901S581.1261-186.7133 581.1261-147.8474V526.4535L812.7642 294.8155C826.4817 281.098 844.4897 274.2034 862.4968 274.2034S898.5119 281.0632 912.2294 294.8155C939.6982 322.2843 939.6992 366.8099 912.2294 394.2817Z"  horiz-adv-x="1024" vert-adv-y="1024"  />

      
      <glyph glyph-name="jiantou" unicode="&#xE62F;" d="M476.1769 800.0148L122.1887 447.1104C114.177 439.1206 109.7782 428.4741 109.7782 417.1474 109.7782 405.735 114.2407 395.0049 122.3162 386.9294 137.7011 371.5654 161.7781 370.0563 178.6721 383.3165L466.678 670.3453V-168.5965C466.678-192.0131 485.8242-211.0756 509.3693-211.0756S552.0396-192.0141 552.0396-168.5965V670.3234L846.845 376.3468C864.4403 367.5063 884.7559 370.2476 897.9942 383.444 905.8993 391.3492 910.2334 402.0384 910.2344 413.5554 910.2344 426.2209 905.1343 438.3117 895.8695 447.5775L872.3454 471.1226 807.5107 535.7451 795.5265 547.9425 542.5835 799.971C534.1893 808.3224 522.6932 812.5518 510.198 811.9362L509.3693 811.8934 508.5196 811.9362C496.0035 812.5528 484.5064 808.3234 476.1769 800.0148V800.0148ZM476.1769 800.0148Z"  horiz-adv-x="1024" vert-adv-y="1024"  />

      
      <glyph glyph-name="place" unicode="&#xE630;" d="M536.381 763.2869C334.4091 763.2869 170.6667 596.96 170.6667 391.7699S536.381-211.9512 536.381-211.9512 902.0952 186.5798 902.0952 391.7699 738.3528 763.2869 536.381 763.2869ZM536.381 298.8785C460.605 298.8785 399.2137 361.245 399.2137 438.1912S460.605 577.504 536.381 577.504C612.1082 577.504 673.5482 515.1375 673.5482 438.1912S612.1082 298.8785 536.381 298.8785Z"  horiz-adv-x="1024" vert-adv-y="1024"  />

      
      <glyph glyph-name="calendar" unicode="&#xE631;" d="M723.528 187.597C753.142 187.597 778.525 213.046 778.525 242.739 778.525 272.429 753.142 297.881 723.528 297.881S668.531 272.43 668.531 242.739C668.531 213.046 693.914 187.597 723.528 187.597ZM330.084 501.482C351.238 501.482 368.16 518.449 368.16 535.414V713.568C368.16 730.535 351.237 747.5 330.084 747.5 313.163 747.5 296.24 734.774 296.24 713.568V535.415C296.241 518.45 308.932 501.482 330.084 501.482ZM681.223 501.482C702.375 501.482 719.298 518.449 719.298 535.414V713.568C719.298 730.535 702.375 747.5 681.223 747.5 664.3 747.5 647.378 734.774 647.378 713.568V535.415C647.377 518.45 660.069 501.482 681.223 501.482ZM600.842 654.184H410.466V599.042H600.841V654.184ZM507.768-28.73C537.382-28.73 562.765-3.281 562.765 26.412 562.765 56.102 537.382 81.554 507.768 81.554 478.155 81.554 452.771 56.103 452.771 26.412 452.771-3.282 478.156-28.73 507.768-28.73ZM292.01-28.73C321.624-28.73 347.007-3.281 347.007 26.412 347.007 56.102 321.624 81.554 292.01 81.554S237.013 56.103 237.013 26.412C237.012-3.282 262.395-28.73 292.01-28.73ZM507.768 187.597C537.382 187.597 562.765 213.046 562.765 242.739 562.765 272.429 537.382 297.881 507.768 297.881 478.155 297.881 452.771 272.43 452.771 242.739 452.771 213.046 478.156 187.597 507.768 187.597ZM841.984 654.184H770.064V599.042H841.984C863.136 599.042 884.29 582.075 884.29 556.623V416.647H135.48V556.624C135.48 577.833 152.401 599.043 177.786 599.043H253.936V654.185H182.016C127.019 654.185 80.483 607.524 80.483 552.383V-45.697C80.483-100.839 122.789-147.499 177.786-147.499H841.985C896.982-147.499 943.519-100.838 943.519-45.697V552.383C943.518 607.524 896.981 654.184 841.984 654.184ZM880.059-49.94C880.059-71.149 863.136-92.356 837.753-92.356H173.554C152.4-92.356 131.248-75.391 131.248-49.94V365.748H880.058V-49.94ZM292.01 187.597C321.624 187.597 347.007 213.046 347.007 242.739 347.007 272.429 321.624 297.881 292.01 297.881S237.013 272.43 237.013 242.739C237.012 213.046 262.395 187.597 292.01 187.597Z"  horiz-adv-x="1024" vert-adv-y="1024"  />

      
      <glyph glyph-name="xialakuang" unicode="&#xE632;" d="M839.68 484.32L184.32 484.32 512 120.8 839.68 484.32 839.68 484.32ZM839.68 484.32L870.4 760.8 153.6 760.8C97.28 760.8 51.2 714.72 51.2 658.4L51.2-58.4C51.2-114.72 97.28-160.8 153.6-160.8L870.4-160.8C926.72-160.8 972.8-114.72 972.8-58.4L972.8 658.4C972.8 714.72 926.72 760.8 870.4 760.8ZM921.6-58.4C921.6-89.12 901.12-109.6 870.4-109.6L153.6-109.6C122.88-109.6 102.4-89.12 102.4-58.4L102.4 658.4C102.4 689.12 122.88 709.6 153.6 709.6L870.4 709.6C901.12 709.6 921.6 689.12 921.6 658.4L921.6-58.4Z"  horiz-adv-x="1024" vert-adv-y="1024"  />

      
      <glyph glyph-name="smiley" unicode="&#xE633;" d="M512-212C794.77-212 1024 17.23 1024 300S794.77 812 512 812 0 582.77 0 300 229.23-212 512-212ZM512 716C741.75 716 928 529.75 928 300S741.75-116 512-116 96 70.25 96 300 282.25 716 512 716ZM256 492C256 527.346 284.654 556 320 556S384 527.346 384 492C384 456.654 355.346 428 320 428 284.654 428 256 456.654 256 492ZM640 492C640 527.346 668.654 556 704 556S768 527.346 768 492C768 456.654 739.346 428 704 428 668.654 428 640 456.654 640 492ZM704.098 184.74L786.426 135.344C730.464 42.274 628.51-20 512-20S293.536 42.274 237.574 135.344L319.902 184.74C359.076 119.592 430.444 76 512 76S664.924 119.592 704.098 184.74Z"  horiz-adv-x="1024" vert-adv-y="1024"  />

      
      <glyph glyph-name="smiley2" unicode="&#xE634;" d="M512 812C229.23 812 0 582.77 0 300S229.23-212 512-212 1024 17.23 1024 300 794.77 812 512 812ZM704 556C739.346 556 768 527.346 768 492S739.346 428 704 428 640 456.654 640 492 668.654 556 704 556ZM320 556C355.346 556 384 527.346 384 492S355.346 428 320 428 256 456.654 256 492 284.654 556 320 556ZM512-20C395.49-20 293.536 42.274 237.574 135.344L319.902 184.74C359.076 119.592 430.444 76 512 76S664.924 119.592 704.098 184.74L786.426 135.344C730.464 42.274 628.51-20 512-20Z"  horiz-adv-x="1024" vert-adv-y="1024"  />

      
      <glyph glyph-name="sad2" unicode="&#xE635;" d="M512-212C794.77-212 1024 17.23 1024 300S794.77 812 512 812 0 582.77 0 300 229.23-212 512-212ZM512 716C741.75 716 928 529.75 928 300S741.75-116 512-116 96 70.25 96 300 282.25 716 512 716ZM256 492C256 527.346 284.654 556 320 556S384 527.346 384 492C384 456.654 355.346 428 320 428 284.654 428 256 456.654 256 492ZM640 492C640 527.346 668.654 556 704 556S768 527.346 768 492C768 456.654 739.346 428 704 428 668.654 428 640 456.654 640 492ZM319.902 31.26L237.574 80.656C293.536 173.726 395.49 236 512 236 628.508 236 730.462 173.726 786.426 80.656L704.098 31.26C664.924 96.408 593.556 140 512 140 430.442 140 359.076 96.408 319.902 31.26Z"  horiz-adv-x="1024" vert-adv-y="1024"  />

      
      <glyph glyph-name="sad" unicode="&#xE636;" d="M512 812C229.23 812 0 582.77 0 300S229.23-212 512-212 1024 17.23 1024 300 794.77 812 512 812ZM704 556C739.346 556 768 527.346 768 492S739.346 428 704 428 640 456.654 640 492 668.654 556 704 556ZM320 556C355.346 556 384 527.346 384 492S355.346 428 320 428 256 456.654 256 492 284.654 556 320 556ZM704.098 31.26C664.924 96.408 593.554 140 512 140 430.444 140 359.076 96.408 319.902 31.26L237.574 80.656C293.534 173.726 395.49 236 512 236 628.508 236 730.464 173.726 786.426 80.656L704.098 31.26Z"  horiz-adv-x="1024" vert-adv-y="1024"  />

      
      <glyph glyph-name="wink" unicode="&#xE637;" d="M512-212C794.77-212 1024 17.23 1024 300S794.77 812 512 812 0 582.77 0 300 229.23-212 512-212ZM512 716C741.75 716 928 529.75 928 300S741.75-116 512-116 96 70.25 96 300 282.25 716 512 716ZM542.74 100.972C682.988 128.678 791.85 192.514 831.194 277.566 809.54 109.61 669.676-20 500.344-20 381.102-20 276.486 44.282 217.452 140.948 287.862 85.89 411.986 75.14 542.74 100.972ZM640 460C640 513.019 668.654 556 704 556S768 513.019 768 460C768 406.981 739.346 364 704 364 668.654 364 640 406.981 640 460ZM352 440.5C310.204 440.5 274.666 424.844 261.484 403 257.944 408.866 256 435.174 256 441.75 256 472.816 298.98 498 352 498 405.02 498 448 472.816 448 441.75 448 435.174 446.056 408.866 442.516 403 429.334 424.844 393.796 440.5 352 440.5Z"  horiz-adv-x="1024" vert-adv-y="1024"  />

      
      <glyph glyph-name="confused2" unicode="&#xE638;" d="M512-212C794.77-212 1024 17.23 1024 300S794.77 812 512 812 0 582.77 0 300 229.23-212 512-212ZM512 716C741.75 716 928 529.75 928 300S741.75-116 512-116 96 70.25 96 300 282.25 716 512 716ZM256 492C256 527.346 284.654 556 320 556S384 527.346 384 492C384 456.654 355.346 428 320 428 284.654 428 256 456.654 256 492ZM640 492C640 527.346 668.654 556 704 556S768 527.346 768 492C768 456.654 739.346 428 704 428 668.654 428 640 456.654 640 492ZM726.106 172H790.97C800.216 99.494 758.518 27.47 687.012 1.44 604.108-28.736 512.112 14.156 481.932 97.056 463.824 146.8 408.626 172.538 358.884 154.428 313.322 137.84 287.928 90.13 297.896 44.004H233.036C223.794 116.512 265.486 188.532 336.992 214.564 419.896 244.742 511.894 201.848 542.074 118.95 560.178 69.202 615.38 43.468 665.118 61.578 710.68 78.162 736.074 125.876 726.106 172Z"  horiz-adv-x="1024" vert-adv-y="1024"  />

      
      <glyph glyph-name="confused" unicode="&#xE639;" d="M512 812C229.23 812 0 582.77 0 300S229.226-212 512-212C794.77-212 1024 17.23 1024 300S794.77 812 512 812ZM704 556C739.346 556 768 527.346 768 492S739.346 428 704 428 640 456.654 640 492C640 527.346 668.654 556 704 556ZM320 556C355.346 556 384 527.346 384 492S355.346 428 320 428 256 456.654 256 492C256 527.346 284.654 556 320 556ZM687.01 1.44C604.108-28.74 512.11 14.152 481.93 97.054 463.822 146.796 408.624 172.532 358.882 154.426 313.32 137.838 287.924 90.13 297.894 44.002H233.034C223.79 116.51 265.484 188.534 336.99 214.562 419.894 244.742 511.892 201.85 542.072 118.948 560.18 69.206 615.378 43.472 665.118 61.578 710.68 78.162 736.076 125.872 726.106 172H790.97C800.21 99.494 758.516 27.468 687.01 1.44Z"  horiz-adv-x="1024" vert-adv-y="1024"  />

      
      <glyph glyph-name="video-camera" unicode="&#xE63A;" d="M384 524C384 612.366 455.634 684 544 684S704 612.366 704 524C704 435.634 632.366 364 544 364S384 435.634 384 524ZM0 524C0 612.366 71.634 684 160 684S320 612.366 320 524C320 435.634 248.366 364 160 364S0 435.634 0 524ZM768 204V300C768 335.2 739.2 364 704 364H64C28.8 364 0 335.2 0 300V-20C0-55.2 28.8-84 64-84H704C739.2-84 768-55.2 768-20V76L1024-84V364L768 204ZM640 44H128V236H640V44Z"  horiz-adv-x="1024" vert-adv-y="1024"  />

      
      <glyph glyph-name="pencil2" unicode="&#xE63B;" d="M384 172L512 236 960 684 896 748 448 300 384 172ZM289.3-55.098C257.668 11.63 223.634 45.664 156.904 77.296L256 350.088 384 428 768 812H576L192 428 0-212 640-20 1024 364V556L640 172 562.088 44Z"  horiz-adv-x="1024" vert-adv-y="1024"  />

      
      <glyph glyph-name="check" unicode="&#xE63C;" d="M69.143 281.714Q69.143 304.571 85.143 320.571L162.857 398.285Q178.857 414.285 201.714 414.285T240.571 398.285L408.571 229.714 783.428 605.143Q799.428 621.143 822.285 621.143T861.142 605.143L938.856 527.429Q954.856 511.429 954.856 488.572T938.856 449.715L447.427-41.714Q431.427-57.714 408.57-57.714T369.713-41.714L85.142 242.857Q69.142 258.857 69.142 281.714Z"  horiz-adv-x="1024" vert-adv-y="1024"  />

      
      <glyph glyph-name="times" unicode="&#xE63D;" d="M62.857 56.571Q62.857 79.428 78.857 95.428L246.857 263.428 78.857 431.428Q62.857 447.428 62.857 470.285T78.857 509.142L156.571 586.856Q172.571 602.856 195.428 602.856T234.285 586.856L402.285 418.856 570.285 586.856Q586.285 602.856 609.142 602.856T647.999 586.856L725.713 509.142Q741.713 493.142 741.713 470.285T725.713 431.428L557.713 263.428 725.713 95.428Q741.713 79.428 741.713 56.571T725.713 17.714L647.999-60Q631.999-76 609.142-76T570.285-60L402.285 108 234.285-60Q218.285-76 195.428-76T156.571-60L78.857 17.714Q62.857 33.714 62.857 56.571Z"  horiz-adv-x="1024" vert-adv-y="1024"  />

      
      <glyph glyph-name="stackoverflow" unicode="&#xE63E;" d="M1024 172V-212H0V172H128V-84H896V172ZM192 108H832V-20H192ZM207.152 246.534L234.85 371.498 859.682 233.002 831.984 108.038ZM279.658 503.442L333.75 619.448 913.782 348.984 859.69 232.978ZM991.722 450.524L913.8 348.974 406.054 738.582 462.39 812H520.634Z"  horiz-adv-x="1024" vert-adv-y="1024"  />

      
      <glyph glyph-name="list-alt" unicode="&#xE63F;" d="M219.429 135.429V98.858Q219.429 91.429 214 86.001T201.143 80.572H164.572Q157.143 80.572 151.715 86.001T146.286 98.858V135.429Q146.286 142.858 151.715 148.286T164.572 153.715H201.143Q208.572 153.715 214 148.286T219.429 135.429ZM219.429 281.714V245.143Q219.429 237.714 214 232.286T201.143 226.857H164.572Q157.143 226.857 151.715 232.286T146.286 245.143V281.714Q146.286 289.143 151.715 294.571T164.572 300H201.143Q208.572 300 214 294.571T219.429 281.714ZM219.429 428V391.429Q219.429 384 214 378.572T201.143 373.143H164.572Q157.143 373.143 151.715 378.572T146.286 391.429V428Q146.286 435.429 151.715 440.857T164.572 446.286H201.143Q208.572 446.286 214 440.857T219.429 428ZM877.714 135.429V98.858Q877.714 91.429 872.285 86.001T859.428 80.572H310.857Q303.428 80.572 298 86.001T292.571 98.858V135.429Q292.571 142.858 298 148.286T310.857 153.715H859.428Q866.857 153.715 872.285 148.286T877.714 135.429ZM877.714 281.714V245.143Q877.714 237.714 872.285 232.286T859.428 226.857H310.857Q303.428 226.857 298 232.286T292.571 245.143V281.714Q292.571 289.143 298 294.571T310.857 300H859.428Q866.857 300 872.285 294.571T877.714 281.714ZM877.714 428V391.429Q877.714 384 872.285 378.572T859.428 373.143H310.857Q303.428 373.143 298 378.572T292.571 391.429V428Q292.571 435.429 298 440.857T310.857 446.286H859.428Q866.857 446.286 872.285 440.857T877.714 428ZM950.857 25.714V501.143Q950.857 508.572 945.428 514T932.571 519.429H91.428Q83.999 519.429 78.571 514T73.142 501.143V25.714Q73.142 18.285 78.571 12.857T91.428 7.428H932.571Q940 7.428 945.428 12.857T950.857 25.714ZM1024 647.429V25.715Q1024-11.999 997.143-38.856T932.572-65.713H91.429Q53.715-65.713 26.858-38.856T0.001 25.715V647.429Q0.001 685.143 26.858 712T91.429 738.857H932.572Q970.286 738.857 997.143 712T1024 647.429Z"  horiz-adv-x="1024" vert-adv-y="1024"  />

      
      <glyph glyph-name="copy" unicode="&#xE640;" d="M969.143 592.571Q992 592.571 1008 576.571T1024 537.714V-157.143Q1024-180 1008-196T969.143-212H420.572Q397.715-212 381.715-196T365.715-157.143V7.428H54.858Q32.001 7.428 16.001 23.428T0.001 62.285V446.285Q0.001 469.142 11.43 496.571T38.859 540L272.002 773.143Q288.002 789.143 315.431 800.572T365.717 812.001H603.431Q626.288 812.001 642.288 796.001T658.288 757.144V569.715Q697.145 592.572 731.431 592.572H969.145ZM658.286 470.857L487.429 300H658.286V470.857ZM292.571 690.286L121.714 519.429H292.571V690.286ZM404.571 320.571L585.142 501.142V738.856H365.713V501.142Q365.713 478.285 349.713 462.285T310.856 446.285H73.142V80.571H365.713V226.857Q365.713 249.714 377.142 277.143T404.571 320.572ZM950.857-138.857V519.429H731.428V281.715Q731.428 258.858 715.428 242.858T676.571 226.858H438.857V-138.856H950.857Z"  horiz-adv-x="1024" vert-adv-y="1024"  />

      
      <glyph glyph-name="off" unicode="&#xE641;" d="M877.714 300Q877.714 210.857 842.857 129.714T749.143-10.286 609.143-104 438.857-138.857 268.571-104 128.571-10.286 34.857 129.714 0 300Q0 404 46 496T175.429 650.286Q200 668.572 230 664.572T277.714 636.001Q296 612.001 291.714 582.001T263.428 533.715Q207.428 491.429 176.857 430.286T146.286 300Q146.286 240.571 169.429 186.571T232 93.142 325.429 30.571 438.858 7.428 552.287 30.571 645.716 93.142 708.287 186.571 731.43 300Q731.43 369.143 700.859 430.286T614.288 533.715Q590.288 552.001 586.002 582.001T600.002 636.001Q617.716 660.572 648.002 664.572T702.288 650.286Q785.717 588 831.717 496T877.717 300ZM512 738.857V373.143Q512 343.429 490.286 321.714T438.857 300 387.428 321.714 365.714 373.143V738.857Q365.714 768.571 387.428 790.286T438.857 812 490.286 790.286 512 738.857Z"  horiz-adv-x="1024" vert-adv-y="1024"  />

      
      <glyph glyph-name="cut" unicode="&#xE642;" d="M548.571 300Q563.428 300 574.285 289.143T585.142 263.429 574.285 237.715 548.571 226.858 522.857 237.715 512 263.429 522.857 289.143 548.571 300ZM720 263.429L1009.714 36Q1025.714 24.571 1024 4 1021.143-16 1004-25.143L930.857-61.714Q923.428-65.714 914.286-65.714 904.572-65.714 896.572-61.143L502.286 160 439.429 122.286Q434.858 120 432.572 119.429 440.572 91.429 438.286 64 434.286 20 406.286-20.286T330.857-90.857Q255.428-138.857 172.571-138.857 94.857-138.857 45.714-94.286-5.715-46.286 0.571 24 4.571 67.429 32.571 108T107.428 178.857Q182.857 226.857 266.285 226.857 313.714 226.857 352.571 209.143 357.714 216.572 365.142 221.714L434.856 263.428 365.142 305.142Q357.713 310.285 352.571 317.713 313.714 299.999 266.285 299.999 182.856 299.999 107.428 347.999 60.571 378.285 32.571 418.856T0.571 502.856Q-2.286 536.57 9.428 567.427T45.714 620.57Q94.285 665.713 172.571 665.713 255.428 665.713 330.857 617.713 378.286 587.999 406.286 547.427T438.286 462.856Q440.572 435.427 432.572 407.427 434.858 406.856 439.429 404.57L502.286 366.856 896.572 587.999Q904.572 592.57 914.286 592.57 923.429 592.57 930.857 588.57L1004 551.999Q1021.143 542.856 1024 522.856 1025.714 502.285 1009.714 490.856ZM330.857 412Q357.143 436 342.857 473.714T282.286 540.571Q229.715 574.285 172.572 574.285 130.286 574.285 108.001 553.714 81.715 529.714 96.001 492T156.572 425.143Q209.143 391.429 266.286 391.429 308.572 391.429 330.857 412ZM282.286-13.714Q328.572 15.429 342.857 53.143T330.857 114.857Q308.571 135.428 266.286 135.428 209.143 135.428 156.572 101.714 110.286 72.571 96.001 34.857T108.001-26.857Q130.287-47.428 172.572-47.428 229.715-47.428 282.286-13.714ZM384 336.571L438.857 303.428V309.714Q438.857 330.285 457.714 341.714L465.714 346.285 420.571 373.142 405.714 358.285Q404 356.571 400 351.999T393.143 345.142Q392 343.999 390.857 343.142T389.143 341.713ZM512 208.571L566.857 190.285 987.428 519.428 914.285 555.999 475.428 309.713V245.142L383.999 190.285 389.142 185.714Q390.285 184.571 393.142 182.285 395.428 179.999 399.428 175.428T405.714 168.571L420.571 153.714ZM914.286-29.143L987.429 7.428 690.286 240.571 589.143 161.714Q588 160 581.714 157.714Z"  horiz-adv-x="1024" vert-adv-y="1024"  />

      
      <glyph glyph-name="paste2" unicode="&#xE643;" d="M704 684H576V748C576 783.2 547.2 812 512 812H384C348.796 812 320 783.2 320 748V684H192V556H704V684ZM512 684H384V747.886C384.034 747.924 384.072 747.964 384.114 748H511.882C511.924 747.964 511.964 747.924 512 747.886V684ZM832 492V652C832 669.6 817.6 684 800 684H736V620H768V492H576L384 300V44H128V620H160V684H96C78.398 684 64 669.6 64 652V12C64-5.6 78.398-20 96-20H384V-212H1024V492H832ZM576 401.49V300H474.51L576 401.49ZM960-148H448V236H640V428H960V-148Z"  horiz-adv-x="1024" vert-adv-y="1024"  />

      
      <glyph glyph-name="books2" unicode="&#xE644;" d="M224 684H32C14.4 684 0 669.6 0 652V-52C0-69.6 14.4-84 32-84H224C241.6-84 256-69.6 256-52V652C256 669.6 241.6 684 224 684ZM192 492H64V556H192V492ZM544 684H352C334.4 684 320 669.6 320 652V-52C320-69.6 334.4-84 352-84H544C561.6-84 576-69.6 576-52V652C576 669.6 561.6 684 544 684ZM512 492H384V556H512V492ZM765.088 634.52L593.624 548.126C577.908 540.208 571.528 520.868 579.446 505.15L867.424-66.398C875.342-82.116 894.682-88.496 910.4-80.576L1081.864 5.816C1097.58 13.736 1103.96 33.076 1096.042 48.79L808.064 620.34C800.144 636.058 780.804 642.44 765.088 634.52ZM928-52C928-69.673 913.673-84 896-84S864-69.673 864-52C864-34.327 878.327-20 896-20S928-34.327 928-52Z"  horiz-adv-x="1024" vert-adv-y="1024"  />

      
      <glyph glyph-name="file-zip" unicode="&#xE645;" d="M416 684H512V620H416ZM320 620H416V556H320ZM416 556H512V492H416ZM320 492H416V428H320ZM416 428H512V364H416ZM320 364H416V300H320ZM416 300V236H320V12C320-5.674 334.326-20 352-20H480C497.674-20 512-5.674 512 12V300H416ZM480 44H352V108H480V44ZM903.432 612.57L760.568 755.432C729.456 786.544 668 812 624 812H144C100 812 64 776 64 732V-132C64-176 100-212 144-212H880C924-212 960-176 960-132V476C960 520 934.544 581.458 903.432 612.57ZM858.178 567.314C861.308 564.184 864.428 560.34 867.458 556H704V719.456C708.34 716.426 712.184 713.306 715.314 710.176L858.178 567.314ZM896-132C896-140.672 888.672-148 880-148H144C135.328-148 128-140.672 128-132V732C128 740.672 135.328 748 144 748H624C628.832 748 634.254 747.39 640 746.296V492H894.296C895.39 486.254 896 480.834 896 476V-132Z"  horiz-adv-x="1024" vert-adv-y="1024"  />

      
      <glyph glyph-name="file-excel" unicode="&#xE646;" d="M743.028 428H607.734L512.002 286.968 416.262 428H280.974L443.136 185.536 260.162-84H522.402V7.576H461.846L512.002 82.57 623.398-84H763.84L580.864 185.536ZM903.432 612.57L760.568 755.432C729.456 786.544 668 812 624 812H144C100 812 64 776 64 732V-132C64-176 100-212 144-212H880C924-212 960-176 960-132V476C960 520 934.544 581.458 903.432 612.57ZM858.178 567.314C861.308 564.184 864.428 560.34 867.458 556H704V719.456C708.34 716.426 712.184 713.306 715.314 710.176L858.178 567.314ZM896-132C896-140.672 888.672-148 880-148H144C135.328-148 128-140.672 128-132V732C128 740.672 135.328 748 144 748H624C628.832 748 634.254 747.39 640 746.296V492H894.296C895.39 486.254 896 480.834 896 476V-132Z"  horiz-adv-x="1024" vert-adv-y="1024"  />

      
      <glyph glyph-name="file-word" unicode="&#xE647;" d="M639.778 336.108H683.99L632.978 109.93 566.652 427.94H460.102L382.988 109.93 325.172 427.94H213.778L326.87-83.942H435.708L512.002 218.766 580.258-83.942H680.594L810.224 427.94H639.778ZM903.432 612.57L760.568 755.432C729.456 786.544 668 812 624 812H144C100 812 64 776 64 732V-132C64-176 100-212 144-212H880C924-212 960-176 960-132V476C960 520 934.544 581.458 903.432 612.57ZM858.178 567.314C861.308 564.184 864.428 560.34 867.458 556H704V719.456C708.34 716.426 712.184 713.306 715.314 710.176L858.178 567.314ZM896-132C896-140.672 888.672-148 880-148H144C135.328-148 128-140.672 128-132V732C128 740.672 135.328 748 144 748H624C628.832 748 634.254 747.39 640 746.296V492H894.296C895.39 486.254 896 480.834 896 476V-132Z"  horiz-adv-x="1024" vert-adv-y="1024"  />

      
      <glyph glyph-name="file-pdf" unicode="&#xE648;" d="M842.012 222.52C828.364 235.966 798.098 243.086 752.04 243.692 720.862 244.036 683.338 241.29 643.87 235.764 626.196 245.962 607.978 257.058 593.682 270.422 555.22 306.338 523.114 356.194 503.106 411.016 504.41 416.136 505.52 420.636 506.554 425.228 506.554 425.228 528.22 548.288 522.484 589.894 521.694 595.6 521.21 597.256 519.676 601.69L517.794 606.524C511.898 620.116 500.346 634.518 482.228 633.732L471.604 634.07 471.312 634.076C451.112 634.076 434.648 623.744 430.326 608.302 417.188 559.868 430.744 487.41 455.308 393.564L449.02 378.278C431.432 335.402 409.39 292.218 389.942 254.12L387.414 249.168C366.954 209.13 348.39 175.142 331.56 146.346L314.184 137.158C312.92 136.49 283.14 120.74 276.156 116.514 216.9 81.132 177.634 40.974 171.12 9.098 169.048-1.072 170.59-14.088 181.134-20.116L197.94-28.574C205.23-32.226 212.918-34.076 220.794-34.076 262.998-34.076 311.994 18.496 379.49 136.29 457.42 161.658 546.144 182.746 623.904 194.38 683.162 161.012 756.046 137.834 802.046 137.834 810.214 137.834 817.258 138.612 822.978 140.13 831.8 142.466 839.236 147.496 843.77 154.322 852.696 167.754 854.504 186.254 852.082 205.198 851.36 210.822 846.87 217.774 842.012 222.52ZM211.646-2.048C219.342 18.994 249.806 60.596 294.85 97.508 297.682 99.804 304.658 106.34 311.044 112.41 263.942 37.286 232.398 7.344 211.646-2.048ZM478.434 612.314C492 612.314 499.718 578.12 500.358 546.06 500.998 514 493.5 491.5 484.2 474.852 476.498 499.5 472.774 538.352 472.774 563.756 472.774 563.756 472.208 612.314 478.434 612.314ZM398.852 174.506C408.302 191.422 418.134 209.262 428.182 228.184 452.674 274.5 468.14 310.74 479.66 340.53 502.57 298.846 531.104 263.41 564.646 235.018 568.83 231.476 573.264 227.916 577.92 224.368 509.71 210.872 450.756 194.458 398.852 174.506ZM828.904 178.348C824.75 175.75 812.85 174.248 805.196 174.248 780.49 174.248 749.924 185.542 707.07 203.914 723.538 205.132 738.632 205.752 752.17 205.752 776.952 205.752 784.29 205.86 808.52 199.68S833.058 180.946 828.904 178.348ZM903.432 612.57L760.568 755.432C729.456 786.544 668 812 624 812H144C100 812 64 776 64 732V-132C64-176 100-212 144-212H880C924-212 960-176 960-132V476C960 520 934.544 581.458 903.432 612.57ZM858.178 567.314C861.308 564.184 864.428 560.34 867.458 556H704V719.456C708.34 716.426 712.184 713.306 715.314 710.176L858.178 567.314ZM896-132C896-140.672 888.672-148 880-148H144C135.328-148 128-140.672 128-132V732C128 740.672 135.328 748 144 748H624C628.832 748 634.254 747.39 640 746.296V492H894.296C895.39 486.254 896 480.834 896 476V-132Z"  horiz-adv-x="1024" vert-adv-y="1024"  />

      
      <glyph glyph-name="plus2" unicode="&#xE649;" d="M804.571 391.429V281.715Q804.571 258.858 788.571 242.858T749.714 226.858H512V-10.856Q512-33.713 496-49.713T457.143-65.713H347.429Q324.572-65.713 308.572-49.713T292.572-10.856V226.858H54.858Q32.001 226.858 16.001 242.858T0.001 281.715V391.429Q0.001 414.286 16.001 430.286T54.858 446.286H292.572V684Q292.572 706.857 308.572 722.857T347.429 738.857H457.143Q480 738.857 496 722.857T512 684V446.286H749.714Q772.571 446.286 788.571 430.286T804.571 391.429Z"  horiz-adv-x="1024" vert-adv-y="1024"  />

      
      <glyph glyph-name="star" unicode="&#xE64A;" d="M950.857 442.286Q950.857 429.715 936 414.857L728.571 212.571 777.714-73.143Q778.285-77.143 778.285-84.572 778.285-96.572 772.285-104.858T754.856-113.144Q743.999-113.144 731.999-106.287L475.428 28.57 218.857-106.287Q206.286-113.144 196-113.144 184-113.144 178-104.858T172-84.572Q172-81.143 173.143-73.143L222.286 212.571 14.286 414.857Q0 430.286 0 442.286 0 463.429 32 468.572L318.857 510.286 447.428 770.286Q458.285 793.715 475.428 793.715T503.428 770.286L631.999 510.286 918.856 468.572Q950.856 463.429 950.856 442.286Z"  horiz-adv-x="1024" vert-adv-y="1024"  />

      
      <glyph glyph-name="wujiaoxin" unicode="&#xE64B;" d="M831.3255 411.6704C842.4432 422.5101 846.427 435.8514 842.3505 448.4515 838.274 461.0515 827.1563 469.4824 811.7769 471.706L613.1408 500.5193C608.3231 501.2605 600.0775 507.19 597.9466 511.5444L509.1903 691.4657C502.3344 705.3628 490.8461 713.3305 477.5975 713.3305S452.8607 705.3628 446.0048 691.4657L357.1559 511.5444C355.025 507.19 346.7794 501.1678 341.9617 500.5193L143.4182 471.706C128.1314 469.4824 117.0137 460.9589 112.8446 448.4515 108.7681 435.8514 112.7519 422.4175 123.8696 411.6704L267.5658 271.5875C271.0864 268.1596 274.2364 258.4316 273.4026 253.7065L239.4936 55.9043C237.4554 43.8601 239.9569 32.7424 246.7201 24.7747 252.8348 17.5482 261.5437 13.5644 271.2717 13.5644 277.6643 13.5644 284.1497 15.3247 290.635 18.66L468.2402 112.0486C469.8152 112.8824 473.4284 113.7163 477.6902 113.7163 481.952 113.7163 485.4726 112.8824 487.0475 112.0486L664.6527 18.66C671.138 15.232 677.6234 13.5644 684.0161 13.5644 693.744 13.5644 702.4529 17.5482 708.5676 24.7747 715.3308 32.7424 717.8323 43.7675 715.7941 55.9043L681.8851 253.7065C681.0513 258.5242 684.2013 268.1596 687.7219 271.5875L831.3255 411.6704 831.3255 411.6704ZM654.3689 305.6818C639.5452 291.2287 631.3922 266.0286 634.9129 245.6462L664.5601 72.5808 509.1903 154.2958C500.3888 158.9282 489.1785 161.4297 477.5975 161.4297S454.8063 158.8356 446.0048 154.2958L290.635 72.6734 320.2822 245.7389C323.8028 266.1213 315.5571 291.3214 300.7336 305.7744L175.1036 428.2543 348.8176 453.4544C369.2927 456.4191 390.7869 472.0765 399.8663 490.6061L477.5975 648.0141 555.3288 490.6061C564.5009 472.0765 585.9024 456.4191 606.3775 453.4544L780.0914 428.2543 654.3689 305.6818 654.3689 305.6818Z"  horiz-adv-x="1024" vert-adv-y="1024"  />

      
      <glyph glyph-name="SPD_Bank" unicode="&#xE64C;" d="M619.3686 234.5147C715.2603 47.3849 953.6662 78.0822 1007.0343 237.5033 1007.0343 237.5033 1023.1301 273.9644 1024.6671 340.7385V667.2658L868.6615 812V413.4045S851.7545 222.8591 619.3259 234.5147ZM176.5416 231.5688S432.623 196.6447 441.3754 455.5439C437.4475 698.6462 752.9595 714.8274 838.7327 540.079 838.7327 540.079 615.0564 537.005 591.5318 353.7603 591.5318 353.7603 594.435 127.6505 417.8934 104.382 417.8934 104.382 226.5795 71.5926 176.5416 231.6115ZM405.3839 535.5534C309.4068 722.854 66.5607 694.3341 13.3207 534.9129 13.3207 534.9129 5.8918 483.2526 0 429.3295V102.8877L156.0056-41.8893 156.0483 356.6209S172.9126 547.2943 405.3839 535.596Z"  horiz-adv-x="1024" vert-adv-y="1024"  />

      
      <glyph glyph-name="dayu" unicode="&#xE64D;" d="M800.4128 623.3215C785.1902 623.3215 770.0286 621.7013 755.1728 618.4765 707.7471 728.7796 597.0771 802.3406 477.3285 802.3406 327.914 802.3406 203.6414 696.6531 178.9123 549.8216L177.8576 549.8369C80.1483 549.8369 0.6572 469.979 0.6572 371.8417 0.6572 273.7197 80.1483 193.9077 177.8576 193.9077H800.4128C918.251 193.9077 1014.1569 290.2414 1014.1569 408.6145 1014.1569 527.0029 918.251 623.3215 800.4128 623.3215ZM971.1329 408.6145C971.1329 313.9314 894.5611 236.9316 800.4128 236.9316H177.8424C103.8382 236.9316 43.62 297.4554 43.62 371.8417 43.62 446.2738 103.8382 506.8283 177.8424 506.8283 182.779 506.8283 188.1742 506.4309 194.838 505.6209L216.6633 502.9003 218.8641 524.802C232.3444 658.5048 343.4577 759.332 477.3132 759.332 586.837 759.332 685.1271 689.485 721.9 585.5551L728.8541 565.9613 748.6619 572.2583C765.474 577.6075 782.8671 580.2975 800.3823 580.2975 894.5306 580.2975 971.1177 503.2824 971.1177 408.6145ZM180.8686 75.4887L235.1567-23.1376C247.7658-46.0023 282.9644-25.5831 270.3399-2.6727L216.0213 95.9538C203.4122 118.8183 168.2441 98.3991 180.8686 75.4887M382.6301 75.4887C400.7413 42.6286 418.8527 9.7378 436.9334-23.1376 449.5426-46.0023 484.7412-25.5831 472.1168-2.6727L417.7981 95.9538C405.2042 118.8183 370.0209 98.3991 382.6301 75.4887M594.7082 75.4887L649.0268-23.1376C661.6359-46.0023 696.804-25.5831 684.2101-2.6727L629.8915 95.9538C617.2823 118.8183 582.099 98.3991 594.7082 75.4887M799.6792 75.4887C817.7906 42.6286 835.8713 9.7378 853.9979-23.1376 866.5917-46.0023 901.775-25.5831 889.1659-2.6727L834.8473 95.9538C822.2534 118.8183 787.0548 98.3991 799.6792 75.4887M346.6826-40.9892L400.9707-139.6155C413.5798-162.4954 448.7784-142.0762 436.1539-119.1658A244251.5553-244251.5553 0 0 0 381.8353-20.5395C369.2568 2.3404 334.0581-18.094 346.6826-40.9892M548.4135-40.9281L602.7321-139.5544C615.3413-162.4496 650.5093-142.0151 637.9154-119.1047L583.5968-20.4782C570.9877 2.4015 535.7891-18.0329 548.4135-40.9281M754.2252-32.797L808.5286-131.4234C821.1224-154.3033 856.321-133.8688 843.6966-110.9737L789.378-12.3473C776.7841 10.5326 741.6007-9.8866 754.2252-32.797"  horiz-adv-x="1024" vert-adv-y="1024"  />

      

  </font>
</defs>
</svg>
